<!DOCTYPE svg PUBLIC "-//W3C//DTD SVG 20010904//EN" "http://www.w3.org/TR/2001/REC-SVG-20010904/DTD/svg10.dtd">
<svg version="1.0" xmlns="http://www.w3.org/2000/svg" width="240px" height="240px" viewBox="0 0 2400 2400" preserveAspectRatio="xMidYMid meet">
<g id="layer101" fill="#5c7d8e" stroke="none">
 <path d="M292 1443 l3 -328 26 -55 c32 -68 68 -112 123 -148 73 -50 127 -64 224 -60 91 3 145 22 206 71 l28 23 -24 36 c-23 33 -36 61 -52 112 -6 17 -8 16 -26 -7 -41 -52 -84 -70 -159 -65 -55 3 -75 9 -103 30 -68 52 -72 73 -78 360 -5 240 -6 258 -26 285 -30 40 -82 73 -116 73 l-29 0 3 -327z"/>
 <path d="M545 1543 l-50 -18 -3 -110 -3 -109 28 26 c78 75 197 76 264 1 47 -53 52 -63 60 -143 17 -168 112 -290 259 -334 124 -37 268 0 349 88 l25 26 35 -34 c20 -19 61 -47 91 -63 48 -25 66 -28 145 -28 82 0 97 3 157 33 78 38 138 100 177 182 25 53 26 62 29 278 4 252 8 243 -78 200 -74 -38 -90 -77 -90 -229 0 -179 -24 -238 -115 -280 -97 -45 -206 0 -250 103 -12 29 -15 79 -15 233 0 163 -2 195 -14 195 -27 0 -71 -21 -99 -48 -51 -48 -57 -70 -57 -211 0 -105 -4 -138 -19 -173 -85 -197 -360 -129 -361 89 0 118 -92 254 -208 309 -74 36 -184 43 -257 17z"/>
 </g>
<g id="layer102" fill="#2aa2de" stroke="none">
 <path d="M292 1443 l3 -328 26 -55 c32 -68 68 -112 123 -148 73 -50 127 -64 224 -60 91 3 145 22 206 71 l28 23 -24 36 c-23 33 -36 61 -52 112 -6 17 -8 16 -26 -7 -41 -52 -84 -70 -159 -65 -55 3 -75 9 -103 30 -68 52 -72 73 -78 360 -5 240 -6 258 -26 285 -30 40 -82 73 -116 73 l-29 0 3 -327z"/>
 </g>

</svg>